<?xml version="1.0" standalone="no"?>
<!DOCTYPE svg PUBLIC "-//W3C//DTD SVG 20010904//EN"
 "http://www.w3.org/TR/2001/REC-SVG-20010904/DTD/svg10.dtd">
<svg version="1.0" xmlns="http://www.w3.org/2000/svg"
 width="223.000000pt" height="202.000000pt" viewBox="0 0 223.000000 202.000000"
 preserveAspectRatio="xMidYMid meet">

<g transform="translate(0.000000,202.000000) scale(0.100000,-0.100000)"
fill="#000000" stroke="none">
<path d="M550 1460 c0 -34 15 -40 23 -10 3 11 10 20 16 20 16 0 15 -222 -1
-238 -9 -9 -4 -12 23 -12 l34 0 -3 125 c-3 91 0 125 8 125 7 0 14 -9 17 -20 8
-30 23 -24 23 10 l0 30 -70 0 -70 0 0 -30z"/>
<path d="M715 1355 l0 -135 33 0 c30 0 32 2 22 20 -6 12 -10 40 -8 63 2 34 7
42 23 42 18 0 20 -6 19 -62 -1 -61 0 -63 25 -63 l26 0 0 135 0 135 -26 0 c-25
0 -26 -2 -25 -57 1 -53 -1 -58 -21 -61 -21 -3 -23 1 -23 38 0 23 5 50 10 61
10 17 7 19 -22 19 l-33 0 0 -135z"/>
<path d="M898 1370 c3 -84 0 -125 -8 -135 -11 -13 -3 -15 54 -15 l66 0 0 35
c0 41 -7 45 -20 10 -6 -15 -17 -25 -30 -25 -18 0 -20 6 -20 55 0 54 11 72 24
39 9 -22 18 -12 22 25 4 33 -12 52 -22 27 -12 -32 -24 -15 -24 34 0 54 10 62
37 30 24 -28 33 -25 33 10 0 30 0 30 -57 30 l-58 0 3 -120z"/>
<path d="M1048 1370 c3 -84 0 -125 -8 -135 -11 -13 -7 -15 22 -15 l34 0 -4 60
c-3 38 -1 60 6 60 11 0 13 -5 32 -77 9 -35 15 -43 34 -43 l23 0 -19 58 c-11
31 -26 62 -34 69 -13 10 -12 12 6 18 28 9 42 48 30 80 -11 28 -45 45 -93 45
l-32 0 3 -120z m71 86 c18 -22 10 -80 -11 -84 -15 -3 -18 4 -18 47 0 52 8 62
29 37z"/>
<path d="M1264 1482 c-5 -4 -19 -56 -31 -117 -11 -60 -23 -118 -28 -127 -6
-15 -2 -18 18 -18 22 0 25 4 23 33 -1 28 2 32 24 32 22 0 25 -4 24 -32 -2 -30
1 -33 27 -33 25 0 29 3 24 23 -3 12 -16 71 -28 131 -23 107 -31 124 -53 108z
m18 -137 c2 -23 -1 -30 -16 -33 -15 -3 -18 0 -13 19 4 13 7 35 7 49 1 33 17 7
22 -35z"/>
<path d="M1377 1369 c1 -77 -2 -128 -9 -136 -8 -10 -3 -13 24 -13 l34 0 -4 59
-4 59 31 7 c56 12 78 72 43 115 -13 16 -32 24 -68 27 l-49 5 2 -123z m71 89
c20 -20 15 -76 -8 -88 -19 -10 -20 -8 -20 45 0 56 6 65 28 43z"/>
<path d="M1515 1473 c37 -92 46 -133 43 -190 l-4 -63 33 0 c29 0 32 3 25 18
-18 34 -1 126 43 235 6 14 2 17 -20 17 -22 0 -25 -3 -20 -20 4 -11 1 -37 -6
-58 l-12 -37 -14 34 c-8 19 -12 45 -8 58 5 21 2 23 -31 23 -30 0 -35 -3 -29
-17z"/>
<path d="M888 1030 c3 -84 0 -125 -8 -135 -11 -13 -7 -15 22 -15 l34 0 -4 65
c-3 45 -1 65 7 65 6 0 14 -7 17 -15 11 -28 24 -15 24 25 0 40 -13 53 -24 25
-12 -32 -26 -13 -26 35 0 55 19 68 42 30 18 -28 28 -25 28 10 0 30 0 30 -57
30 l-58 0 3 -120z"/>
<path d="M1047 1132 c-36 -40 -40 -187 -7 -227 63 -76 129 2 117 138 -6 72
-28 107 -66 107 -15 0 -35 -8 -44 -18z m61 -115 c2 -90 0 -108 -13 -113 -25
-10 -29 2 -33 82 -5 98 4 146 26 142 15 -3 17 -19 20 -111z"/>
<path d="M1185 1015 l0 -135 33 0 c30 0 42 12 23 24 -13 8 -10 97 3 93 6 -2
18 -29 26 -60 12 -49 17 -57 38 -57 15 0 22 5 18 13 -2 6 -10 31 -17 54 -6 23
-17 48 -25 54 -11 9 -9 15 11 31 25 19 33 60 17 84 -13 20 -50 34 -89 34 l-38
0 0 -135z m91 80 c7 -28 -11 -65 -31 -65 -12 0 -14 11 -11 48 5 57 3 53 21 46
8 -4 18 -17 21 -29z"/>
<path d="M1384 813 c-15 -11 -34 -48 -34 -67 0 -8 21 -40 46 -71 51 -64 58
-107 16 -113 -18 -3 -26 3 -35 27 -16 43 -27 39 -27 -9 l0 -40 45 0 c52 0 85
25 85 66 0 32 -14 59 -56 107 -36 39 -44 71 -20 80 15 6 27 -5 41 -38 8 -17
10 -15 13 13 2 19 2 36 -1 38 -9 9 -63 14 -73 7z"/>
<path d="M721 778 c0 -33 0 -33 16 -10 30 43 35 25 32 -103 l-4 -125 25 0 25
0 -3 125 c-4 128 2 145 31 103 16 -23 16 -23 16 10 l1 32 -70 0 -70 0 1 -32z"/>
<path d="M885 675 l0 -136 60 3 c60 3 60 3 63 36 4 35 -16 45 -25 13 -5 -19
-36 -34 -47 -23 -3 3 -6 27 -6 54 0 45 11 61 25 38 13 -21 25 -9 25 25 0 36
-13 47 -24 19 -11 -28 -26 -4 -26 42 0 38 3 44 21 44 12 0 23 -8 26 -20 8 -30
23 -24 23 10 0 30 0 30 -57 30 l-58 0 0 -135z"/>
<path d="M1035 675 l0 -135 63 0 62 0 0 35 c0 37 -18 48 -27 16 -5 -19 -36
-34 -47 -23 -3 3 -6 27 -6 54 0 45 11 61 25 38 13 -21 25 -9 25 25 0 36 -13
47 -24 19 -11 -28 -26 -4 -26 42 0 37 3 44 19 44 11 0 23 -9 26 -20 10 -30 25
-24 25 10 0 30 0 30 -57 30 l-58 0 0 -135z"/>
<path d="M1185 675 c0 -128 1 -135 20 -135 19 0 20 6 18 92 l-3 93 37 -92 c20
-51 42 -93 49 -93 10 0 14 34 16 135 3 129 2 135 -17 135 -18 0 -20 -6 -17
-49 7 -95 -1 -101 -31 -23 -23 58 -33 72 -50 72 -21 0 -22 -3 -22 -135z"/>
</g>
</svg>
